# xmcd
#
# Track frame offsets:
#	150
#	18245
#	33765
#	47260
#	66305
#	79207
#	94007
#	114467
#	125467
#	145567
#	156417
#	168442
#
# Disc length: 2540 seconds
#
# Revision: 0
# Processed by: cddbd v1.5.2PL0 Copyright (c) Steve Scherf et al.
# Submitted via: EZCDAudioConverter 3.1.0.1
#
DISCID=9009ea0c
DTITLE=Koma Rojhılat - Mezrabotan'ım Ez
DYEAR=1997
DGENRE=Kurdish
TTITLE0=Keça Delal
TTITLE1=Ew Gol
TTITLE2=Şerwanen Gele Me
TTITLE3=Mılazgır
TTITLE4=Gula Mın
TTITLE5=Cızir E
TTITLE6=Mamedo
TTITLE7=Pero Piya
TTITLE8=Sare
TTITLE9=Xırınge
TTITLE10=Newroz 
TTITLE11=Mezrabotan'ım Ez
EXTD=
EXTT0=
EXTT1=
EXTT2=
EXTT3=
EXTT4=
EXTT5=
EXTT6=
EXTT7=
EXTT8=
EXTT9=
EXTT10=
EXTT11=
PLAYORDER=
